Coordinates
version=1
nRows=31
nColumns=33
inDegrees=yes

Units are S.I. units (second, meters, Newtons, ...)
Angles are in degrees.

endheader
time	ground_thorax_rot_x	ground_thorax_rot_y	ground_thorax_rot_z	ground_thorax_tx	ground_thorax_ty	ground_thorax_tz	clav_prot_r	clav_elev_r	scapula_abduction_r	scapula_elevation_r	scapula_upward_rot_r	scapula_winging_r	shoulder_elv_r	plane_of_elev_r	axial_rot_r	elbow_flexion_r	pro_sup_r	wrist_flex_r	wrist_dev_r	clav_prot_l	clav_elev_l	scapula_abduction_l	scapula_elevation_l	scapula_upward_rot_l	scapula_winging_l	shoulder_elv_l	plane_of_elev_l	axial_rot_l	elbow_flexion_l	pro_sup_l	wrist_flex_l	wrist_dev_l	
12.6900	39.190488	14.134677	15.816019	-123.765842	785.601679	7.633407	14.175811	41.445016	43.483669	42.602790	-19.562384	-2970.735799	-4259.625109	30.673124	54.065961	731.361806	-332.388430	18.835073	9.781833	5.348960	-45.000000	-37.816614	45.000000	-37.799460	449.073313	-6769.756446	22.990864	-42.929575	-710.903313	-342.818267	8.053044	-19.395562	
12.7000	39.304989	14.674586	16.416996	-126.363614	786.850792	7.445924	14.484149	41.680399	42.954675	43.255798	-21.028150	-2970.125307	-4259.329747	30.973712	53.223714	731.415828	-332.883871	18.839930	9.719056	5.471418	-45.000000	-37.252050	45.000000	-39.153272	449.136562	-6769.483694	23.029571	-43.044443	-710.871216	-343.495419	8.079650	-19.386552	
12.7100	39.415877	15.130854	16.907165	-128.986701	788.133722	7.263008	14.746754	41.942553	42.451313	43.857088	-22.345573	-2969.564219	-4259.041051	31.259971	52.412323	731.467444	-333.410296	18.841395	9.656153	5.590402	-45.000000	-36.791938	45.000000	-40.279418	449.233952	-6769.235767	23.046650	-43.182573	-710.845052	-344.225373	8.125543	-19.372537	
12.7200	39.517567	15.396427	17.150587	-131.624040	789.446829	7.084505	14.871024	42.177625	42.068945	44.313043	-23.236122	-2969.192435	-4258.787691	31.475945	51.796548	731.520259	-333.907814	18.843881	9.590341	5.672740	-45.000000	-36.541098	45.000000	-40.915560	449.405088	-6769.037648	23.027510	-43.347029	-710.816020	-344.968133	8.183757	-19.358273	
12.7300	39.600312	15.505785	17.208815	-134.265030	790.786452	6.910983	14.897695	42.327562	41.808389	44.615210	-23.791005	-2968.990745	-4258.545176	31.633126	51.324654	731.568206	-334.373155	18.853237	9.533842	5.728057	-45.000000	-36.439439	45.000000	-41.187252	449.638756	-6768.865556	22.990520	-43.510018	-710.790864	-345.735821	8.250897	-19.342586	
12.7400	39.661473	15.512585	17.148070	-136.900406	792.149373	6.743754	14.855730	42.372584	41.658551	44.782296	-24.107664	-2968.939575	-4258.303576	31.738513	50.977124	731.609632	-334.803532	18.869584	9.484834	5.769234	-45.000000	-36.436872	45.000000	-41.238927	449.918134	-6768.696577	22.951357	-43.666472	-710.764387	-346.544597	8.323102	-19.325189	
12.7500	39.704310	15.508033	17.094412	-139.524961	793.533746	6.584104	14.823457	42.330651	41.544280	44.882093	-24.422266	-2968.925052	-4258.039288	31.840187	50.619600	731.638261	-335.228838	18.891500	9.452744	5.818667	-45.000000	-36.428177	45.000000	-41.307702	450.207408	-6768.508412	22.924606	-43.802780	-710.749540	-347.428737	8.401615	-19.301022	
12.7600	39.739439	15.504580	17.050236	-142.136514	794.938867	6.433306	14.793272	42.243133	41.451701	44.944566	-24.731512	-2968.943296	-4257.770234	31.937421	50.291490	731.659495	-335.646025	18.914716	9.426096	5.880327	-45.000000	-36.415189	45.000000	-41.408872	450.497342	-6768.305908	22.906285	-43.935512	-710.736792	-348.382086	8.484044	-19.271766	
12.7700	39.768519	15.492976	17.008512	-144.735326	796.364805	6.292263	14.764178	42.112503	41.374784	44.976749	-25.035362	-2968.981913	-4257.499894	32.035054	49.983326	731.671090	-336.063758	18.938462	9.410325	5.951098	-45.000000	-36.392105	45.000000	-41.526028	450.785227	-6768.094614	22.896410	-44.065628	-710.733495	-349.387409	8.568154	-19.237861	
12.7800	39.809076	15.443989	16.914033	-147.321508	797.811369	6.161689	14.718574	42.019568	41.307352	44.997508	-25.251109	-2969.046219	-4257.251438	32.117303	49.737393	731.682466	-336.481346	18.959711	9.394199	6.015454	-45.000000	-36.403732	45.000000	-41.554816	451.070693	-6767.896377	22.874473	-44.212308	-710.724023	-350.397372	8.655906	-19.206620	
12.7900	39.858643	15.344669	16.758366	-149.894805	799.278033	6.041817	14.650758	41.952805	41.254356	45.000000	-25.366063	-2969.139196	-4257.028856	32.184954	49.553187	731.690352	-336.909203	18.976460	9.380100	6.075166	-45.000000	-36.455468	45.000000	-41.467129	451.361207	-6767.719685	22.840705	-44.375704	-710.713001	-351.377873	8.740590	-19.179856	
12.8000	39.920190	15.213485	16.559587	-152.453162	800.763313	5.932509	14.567496	41.925070	41.208409	45.000000	-25.401028	-2969.253092	-4256.831843	32.236260	49.435715	731.697722	-337.362779	18.987210	9.363098	6.130516	-45.000000	-36.538128	45.000000	-41.303005	451.650989	-6767.560647	22.794627	-44.556886	-710.690178	-352.304249	8.818741	-19.161807	
12.8100	39.978416	15.095778	16.390664	-154.993370	802.265117	5.833017	14.492420	41.870408	41.163564	45.000000	-25.471968	-2969.362041	-4256.636691	32.289127	49.330424	731.696582	-337.873115	18.992730	9.354787	6.194144	-45.000000	-36.595694	45.000000	-41.199999	451.934557	-6767.395422	22.756197	-44.739380	-710.666338	-353.185223	8.881596	-19.149900	
12.8200	40.039031	14.976070	16.222826	-157.511147	803.780866	5.741962	14.418917	41.819822	41.118647	45.000000	-25.540975	-2969.469947	-4256.447097	32.338333	49.241471	731.689711	-338.447103	18.992880	9.355342	6.254032	-45.000000	-36.650080	45.000000	-41.103011	452.212311	-6767.231328	22.714677	-44.931918	-710.634454	-354.005766	8.933128	-19.146917	
12.8300	40.099080	14.858261	16.062117	-160.002713	805.308205	5.657265	14.347938	41.770984	41.071161	45.000000	-25.618578	-2969.571206	-4256.260549	32.384789	49.164745	731.678205	-339.085499	18.988748	9.367744	6.309913	-45.000000	-36.696845	45.000000	-41.020231	452.483152	-6767.066340	22.670445	-45.131763	-710.596276	-354.765991	8.973067	-19.152285	
12.8400	40.161232	14.732758	15.891890	-162.464452	806.844827	5.576437	14.274848	41.734417	41.022749	45.000000	-25.684713	-2969.669291	-4256.083064	32.425942	49.104188	731.662972	-339.784563	18.980637	9.389380	6.357733	-45.000000	-36.746665	45.000000	-40.921967	452.747642	-6766.905267	22.620922	-45.345070	-710.552927	-355.460353	9.003402	-19.166725	
12.8500	40.226632	14.589546	15.696915	-164.893272	808.388532	5.496896	14.194289	41.732958	40.972346	45.000000	-25.717147	-2969.762874	-4255.917950	32.456660	49.062716	731.648121	-340.525310	18.971223	9.420978	6.386062	-45.000000	-36.809172	45.000000	-40.772895	453.003835	-6766.751654	22.557917	-45.572154	-710.504009	-356.086242	9.027925	-19.191284	
12.8600	40.297315	14.429463	15.476519	-167.286572	809.936954	5.416300	14.106443	41.760144	40.922310	45.000000	-25.711747	-2969.858079	-4255.766274	32.478630	49.044631	731.634136	-341.292293	18.960603	9.454701	6.399064	-45.000000	-36.887572	45.000000	-40.571880	453.255263	-6766.609011	22.481963	-45.825622	-710.447371	-356.642388	9.045952	-19.226920	
12.8700	40.366893	14.266078	15.252852	-169.642817	811.487589	5.332808	14.017072	41.798252	40.870919	45.000000	-25.698259	-2969.949564	-4255.622758	32.495488	49.041632	731.622915	-342.071763	18.950109	9.489520	6.404134	-45.000000	-36.968822	45.000000	-40.358414	453.501769	-6766.471331	22.397531	-46.097786	-710.385718	-357.145567	9.057496	-19.271401	
12.8800	40.428673	14.121926	15.061678	-171.961211	813.037323	5.245212	13.936454	41.800094	40.821044	45.000000	-25.728780	-2970.035132	-4255.482020	32.516213	49.039667	731.609087	-342.870084	18.937454	9.520060	6.424367	-45.000000	-37.032333	45.000000	-40.206164	453.746972	-6766.332496	22.319552	-46.388812	-710.326587	-357.622175	9.058468	-19.320533	
12.8900	40.481247	14.003065	14.906738	-174.241703	814.582273	5.152942	13.867791	41.760862	40.769183	45.000000	-25.820816	-2970.110128	-4255.338379	32.543468	49.026798	731.591587	-343.697184	18.921730	9.545421	6.465437	-45.000000	-37.071693	45.000000	-40.138008	453.987562	-6766.189450	22.255556	-46.687956	-710.270695	-358.097237	9.056197	-19.370899	
12.9000	40.524826	13.909927	14.789482	-176.484732	816.117666	5.055930	13.812351	41.683225	40.713720	45.000000	-25.968883	-2970.173673	-4255.190237	32.574317	49.003838	731.572076	-344.552773	18.902844	9.567129	6.526370	-45.000000	-37.088519	45.000000	-40.146649	454.225208	-6766.042975	22.200566	-47.005519	-710.215512	-358.581207	9.053712	-19.421365	
12.9100	40.561238	13.837519	14.699857	-178.691073	817.638045	4.954435	13.767473	41.570879	40.655798	45.000000	-26.171681	-2970.226924	-4255.037264	32.609112	48.969854	731.551459	-345.440496	18.881105	9.584759	6.604948	-45.000000	-37.083898	45.000000	-40.226158	454.457977	-6765.893425	22.158061	-47.339273	-710.160391	-359.082487	9.051799	-19.471154	
12.9200	40.593134	13.769619	14.619280	-180.861201	819.137359	4.848860	13.726566	41.448364	40.595070	45.000000	-26.391530	-2970.270627	-4254.885803	32.642024	48.937378	731.532763	-346.339725	18.858490	9.605370	6.683938	-45.000000	-37.072612	45.000000	-40.316114	454.687745	-6765.747072	22.111148	-47.704897	-710.105610	-359.588674	9.050559	-19.520959	
12.9300	40.625342	13.695740	14.528087	-182.995009	820.609312	4.739599	13.683316	41.328251	40.534495	45.000000	-26.606349	-2970.311269	-4254.742077	32.669535	48.912469	731.515079	-347.232916	18.835819	9.626124	6.752962	-45.000000	-37.063911	45.000000	-40.384286	454.911201	-6765.609386	22.057152	-48.103176	-710.049343	-360.087157	9.050237	-19.571854	
12.9400	40.664103	13.589320	14.393987	-185.091637	822.047758	4.626928	13.626920	41.258754	40.473355	45.000000	-26.750686	-2970.352201	-4254.615118	32.682019	48.914285	731.507378	-348.075140	18.817656	9.652705	6.783014	-45.000000	-37.086547	45.000000	-40.335577	455.130081	-6765.489784	21.966384	-48.550369	-709.984464	-360.544428	9.053039	-19.627863	
12.9500	40.712007	13.448772	14.223373	-187.149275	823.446875	4.510961	13.553695	41.186174	40.432417	45.000000	-26.850625	-2970.407466	-4254.514514	32.689400	48.928386	731.495118	-348.861100	18.801288	9.667486	6.791045	-45.000000	-37.116713	45.000000	-40.220366	455.341915	-6765.391118	21.865714	-49.025333	-709.925917	-360.955717	9.047526	-19.687326	
12.9600	40.763077	13.288386	14.030928	-189.165541	824.801619	4.391640	13.472920	41.143816	40.389102	45.000000	-26.905048	-2970.462434	-4254.429080	32.690338	48.964316	731.486643	-349.579055	18.787610	9.678497	6.775022	-45.000000	-37.162899	45.000000	-40.037423	455.548289	-6765.304393	21.742030	-49.532086	-709.867013	-361.308629	9.039789	-19.747432	
12.9700	40.806038	13.159170	13.881249	-191.137384	826.107729	4.268805	13.402157	41.087807	40.337551	45.000000	-27.007123	-2970.512206	-4254.341481	32.694899	49.006205	731.479504	-350.268658	18.773176	9.679535	6.774435	-45.000000	-37.191253	45.000000	-39.933095	455.751083	-6765.212425	21.627741	-50.035507	-709.808215	-361.629585	9.016845	-19.803111	
12.9800	40.836578	13.073673	13.784090	-193.061605	827.362186	4.142263	13.350616	41.048979	40.258724	45.000000	-27.166945	-2970.540361	-4254.233140	32.701653	49.054908	731.484937	-350.955729	18.758754	9.688251	6.788862	-45.000000	-37.214722	45.000000	-39.917818	455.951082	-6765.104713	21.513455	-50.532257	-709.736679	-361.932142	8.986864	-19.852015	
12.9900	40.856029	13.034020	13.749652	-194.934656	828.563162	4.011932	13.317382	40.979332	40.170908	45.000000	-27.414331	-2970.558716	-4254.107645	32.719698	49.094518	731.490873	-351.682056	18.740464	9.696713	6.838286	-45.000000	-37.206958	45.000000	-40.052839	456.147292	-6764.981889	21.428085	-50.994214	-709.665219	-362.245338	8.940214	-19.891010	
